<svg width="13" height="13" viewBox="0 0 13 13" fill="none"
    xmlns="http://www.w3.org/2000/svg">
    <path d="M6.33838 9.47363H7.33838V6.47363H6.33838V9.47363ZM6.83838 1.97363C4.07838 1.97363 1.83838 4.21363 1.83838 6.97363C1.83838 9.73363 4.07838 11.9736 6.83838 11.9736C9.59838 11.9736 11.8384 9.73363 11.8384 6.97363C11.8384 4.21363 9.59838 1.97363 6.83838 1.97363ZM6.83838 10.9736C4.63338 10.9736 2.83838 9.17863 2.83838 6.97363C2.83838 4.76863 4.63338 2.97363 6.83838 2.97363C9.04338 2.97363 10.8384 4.76863 10.8384 6.97363C10.8384 9.17863 9.04338 10.9736 6.83838 10.9736ZM6.33838 5.47363H7.33838V4.47363H6.33838V5.47363Z" fill="#3B755F"/>
    <path d="M6.33838 4.47363H7.33838V5.47363H6.33838V4.47363ZM6.33838 6.47363H7.33838V9.47363H6.33838V6.47363Z" fill="#3B755F"/>
    <path d="M6.83838 1.97363C4.07838 1.97363 1.83838 4.21363 1.83838 6.97363C1.83838 9.73363 4.07838 11.9736 6.83838 11.9736C9.59838 11.9736 11.8384 9.73363 11.8384 6.97363C11.8384 4.21363 9.59838 1.97363 6.83838 1.97363ZM6.83838 10.9736C4.63338 10.9736 2.83838 9.17863 2.83838 6.97363C2.83838 4.76863 4.63338 2.97363 6.83838 2.97363C9.04338 2.97363 10.8384 4.76863 10.8384 6.97363C10.8384 9.17863 9.04338 10.9736 6.83838 10.9736Z" fill="#3B755F"/>
</svg>
