<svg width="800" height="400" viewBox="0 0 800 400"
    xmlns="http://www.w3.org/2000/svg">
    <mask id="satori_om-id">
        <rect x="0" y="0" width="800" height="400" fill="#fff"/>
    </mask>
    <rect x="0" y="0" width="800" height="400" fill="white"/>
    <mask id="satori_om-id-0">
        <rect x="42" y="42" width="190" height="46" fill="#fff"/>
    </mask>
    <mask id="satori_om-id-0-0">
        <rect x="42" y="65" width="0" height="0" fill="#fff"/>
    </mask>
    <clipPath id="satori_cp-id-0-1">
        <rect x="42" y="42" width="41" height="46"/>
    </clipPath>
    <mask id="satori_om-id-0-1">
        <rect x="42" y="42" width="41" height="46" fill="#fff"/>
    </mask>
    <image x="42" y="42" width="41" height="46" href="data:image/svg+xml;utf8,%3Csvg fill=%22none%22 xmlns=%22http://www.w3.org/2000/svg%22 width=%2240.99999999999999%22 height=%2246%22 viewBox=%220 0 41 46%22%3E%3Cpath fill-rule=%22evenodd%22 clip-rule=%22evenodd%22 d=%22M20.7594 0.296993C11.8523 0.296993 4.63159 7.51767 4.63159 16.4248C4.63159 25.332 11.8523 32.5526 20.7594 32.5526C29.6666 32.5526 36.8872 25.332 36.8872 16.4248C36.8872 7.51767 29.6666 0.296993 20.7594 0.296993ZM21.7055 27.199C15.0821 27.647 9.98988 15.3899 12.3793 13.009C14.5591 10.837 15.4244 11.6134 15.8337 13.4321C16.0624 14.4477 15.8927 15.6938 15.7398 16.8168C15.6069 17.7927 15.4866 18.6756 15.6515 19.2334C16.0061 20.4331 16.6146 21.3839 17.3152 21.3164C18.0159 21.2489 19.1022 19.3642 16.7643 12.1573C15.0417 6.84704 19.6649 5.01133 20.0884 6.11656C20.2796 6.61549 20.0174 7.43241 19.7094 8.39211C19.3352 9.55832 18.8933 10.9354 19.115 12.2088C19.2964 13.251 19.4695 13.8299 19.6241 14.3469C19.8139 14.9813 19.9758 15.5226 20.0909 16.7129C20.1397 17.2168 20.1162 17.8617 20.0913 18.5473C20.0284 20.2787 19.956 22.2693 21.0136 22.9027C22.4899 23.7869 23.1374 19.4874 21.7159 11.7192C20.4394 4.74358 25.0207 6.89465 25.1415 9.00926C25.2624 11.1239 25.1284 14.3007 24.2738 18.7428C23.4193 23.185 24.0408 23.5508 25.1415 22.4336C26.2423 21.3164 26.3038 20.5267 25.6661 16.1227C25.2314 13.1211 29.9298 11.5922 29.4232 15.5363C28.9132 19.5063 26.6049 26.8676 21.7055 27.199Z%22 fill=%22%233B755F%22%3E%3C/path%3E%3Cpath d=%22M2.99764 45.7014C2.36168 45.7014 1.85472 45.5824 1.47675 45.3442C1.09878 45.1121 0.90979 44.7945 0.90979 44.3915C0.90979 43.9518 1.15277 43.5915 1.63874 43.3105C1.37476 43.1456 1.24277 42.9288 1.24277 42.6601C1.24277 42.5197 1.28176 42.3945 1.35976 42.2846C1.44375 42.1746 1.55474 42.0861 1.69273 42.0189C1.46475 41.854 1.29076 41.6433 1.17077 41.3868C1.05678 41.1303 0.999783 40.8494 0.999783 40.544C0.999783 40.2082 1.07178 39.9028 1.21577 39.628C1.35976 39.3471 1.56974 39.1272 1.84572 38.9684C2.1217 38.8035 2.44868 38.7211 2.82665 38.7211C3.22262 38.7211 3.5646 38.8188 3.85257 39.0142C3.95457 38.9593 4.08956 38.9135 4.25754 38.8768C4.43153 38.8341 4.61752 38.8127 4.8155 38.8127H5.03149L4.98656 39.2586C4.97119 39.4111 4.84282 39.5272 4.68955 39.5272H4.62652C4.52453 39.5272 4.44053 39.5303 4.37454 39.5364C4.55452 39.8173 4.64452 40.1532 4.64452 40.544C4.64452 40.8799 4.57252 41.1883 4.42853 41.4693C4.29054 41.7441 4.08356 41.9639 3.80758 42.1288C3.5316 42.2876 3.20462 42.367 2.82665 42.367C2.68866 42.367 2.52967 42.3456 2.34968 42.3029C2.28369 42.3334 2.25069 42.3823 2.25069 42.4494C2.25069 42.5288 2.29569 42.593 2.38568 42.6418C2.48167 42.6846 2.64066 42.7212 2.86265 42.7517L3.63659 42.8525C4.66851 42.993 5.18448 43.4357 5.18448 44.1808C5.18448 44.6449 4.98949 45.0144 4.59952 45.2892C4.21555 45.564 3.68159 45.7014 2.99764 45.7014ZM2.82665 41.5242C3.08463 41.5242 3.28262 41.4387 3.42061 41.2677C3.5646 41.0906 3.63659 40.8494 3.63659 40.544C3.63659 40.2387 3.5646 40.0005 3.42061 39.8295C3.28262 39.6524 3.08463 39.5639 2.82665 39.5639C2.56267 39.5639 2.35868 39.6524 2.21469 39.8295C2.0767 40.0005 2.00771 40.2387 2.00771 40.544C2.00771 40.8494 2.0767 41.0906 2.21469 41.2677C2.35868 41.4387 2.56267 41.5242 2.82665 41.5242ZM3.04263 44.8404C3.81058 44.8404 4.19455 44.648 4.19455 44.2632C4.19455 44.0922 4.12855 43.964 3.99656 43.8785C3.86457 43.7991 3.64559 43.735 3.33961 43.6861L2.34968 43.5396C2.00771 43.68 1.83672 43.8938 1.83672 44.1808C1.83672 44.4006 1.94171 44.5655 2.1517 44.6755C2.36168 44.7854 2.65866 44.8404 3.04263 44.8404Z%22 fill=%22%233B755F%22%3E%3C/path%3E%3Cpath d=%22M5.45425 38.8127H6.49817L6.52517 39.2982C6.65716 39.1455 6.82515 39.0112 7.02913 38.8951C7.23912 38.7791 7.4581 38.7211 7.68608 38.7211C7.75808 38.7211 7.82407 38.7272 7.88407 38.7394L7.80307 39.857C7.68908 39.8265 7.56009 39.8112 7.4161 39.8112C7.23012 39.8112 7.05913 39.857 6.90314 39.9486C6.74715 40.0341 6.63616 40.141 6.57016 40.2692V43.393H5.45425V38.8127Z%22 fill=%22%233B755F%22%3E%3C/path%3E%3Cpath d=%22M10.2336 43.4846C9.71164 43.4846 9.26467 43.3777 8.8927 43.164C8.52672 42.9441 8.25074 42.654 8.06476 42.2937C7.88477 41.9273 7.79478 41.5212 7.79478 41.0754C7.79478 40.6479 7.88177 40.257 8.05576 39.9028C8.22975 39.5486 8.48173 39.2677 8.8117 39.06C9.14168 38.8463 9.53465 38.7394 9.99062 38.7394C10.4106 38.7394 10.7646 38.828 11.0525 39.0051C11.3465 39.1822 11.5655 39.4203 11.7095 39.7196C11.8595 40.0188 11.9345 40.3547 11.9345 40.7273C11.9345 40.9105 11.9105 41.1181 11.8625 41.3502H8.95569C9.01569 41.7532 9.17168 42.0555 9.42366 42.2571C9.67564 42.4525 9.97862 42.5502 10.3326 42.5502C10.8186 42.5502 11.2685 42.425 11.6825 42.1746L11.7365 43.1365C11.5445 43.2403 11.3195 43.3258 11.0615 43.393C10.8096 43.4541 10.5336 43.4846 10.2336 43.4846ZM10.8006 40.5807C10.8006 40.3425 10.7346 40.1318 10.6026 39.9486C10.4706 39.7654 10.2666 39.6738 9.99062 39.6738C9.71464 39.6738 9.49265 39.7562 9.32467 39.9211C9.15668 40.086 9.04269 40.3059 8.98269 40.5807H10.8006Z%22 fill=%22%233B755F%22%3E%3C/path%3E%3Cpath d=%22M14.6851 43.4846C14.1631 43.4846 13.7162 43.3777 13.3442 43.164C12.9782 42.9441 12.7023 42.654 12.5163 42.2937C12.3363 41.9273 12.2463 41.5212 12.2463 41.0754C12.2463 40.6479 12.3333 40.257 12.5073 39.9028C12.6813 39.5486 12.9332 39.2677 13.2632 39.06C13.5932 38.8463 13.9862 38.7394 14.4421 38.7394C14.8621 38.7394 15.2161 38.828 15.504 39.0051C15.798 39.1822 16.017 39.4203 16.161 39.7196C16.311 40.0188 16.386 40.3547 16.386 40.7273C16.386 40.9105 16.362 41.1181 16.314 41.3502H13.4072C13.4672 41.7532 13.6232 42.0555 13.8752 42.2571C14.1271 42.4525 14.4301 42.5502 14.7841 42.5502C15.2701 42.5502 15.72 42.425 16.134 42.1746L16.188 43.1365C15.996 43.2403 15.771 43.3258 15.513 43.393C15.2611 43.4541 14.9851 43.4846 14.6851 43.4846ZM15.2521 40.5807C15.2521 40.3425 15.1861 40.1318 15.0541 39.9486C14.9221 39.7654 14.7181 39.6738 14.4421 39.6738C14.1661 39.6738 13.9442 39.7562 13.7762 39.9211C13.6082 40.086 13.4942 40.3059 13.4342 40.5807H15.2521Z%22 fill=%22%233B755F%22%3E%3C/path%3E%3Cpath d=%22M19.0556 38.7394C19.6136 38.7394 20.0366 38.9287 20.3245 39.3074C20.6125 39.686 20.7565 40.1959 20.7565 40.8372V43.393H19.6406V40.9288C19.6406 40.5013 19.5686 40.1868 19.4246 39.9853C19.2866 39.7776 19.0616 39.6738 18.7496 39.6738C18.4077 39.6738 18.1257 39.8051 17.9037 40.0677V43.393H16.7878V38.8127H17.8317L17.8497 39.1333C18.2277 38.8707 18.6297 38.7394 19.0556 38.7394Z%22 fill=%22%233B755F%22%3E%3C/path%3E%3Cpath d=%22M22.6712 43.4846C22.3832 43.4846 22.1192 43.4571 21.8792 43.4021C21.6453 43.3472 21.4023 43.2617 21.1503 43.1456L21.2493 42.1746C21.5013 42.3273 21.7352 42.4433 21.9512 42.5227C22.1732 42.596 22.4012 42.6327 22.6352 42.6327C23.0911 42.6327 23.3191 42.48 23.3191 42.1746C23.3191 42.0097 23.2591 41.8845 23.1391 41.799C23.0192 41.7074 22.8032 41.6006 22.4912 41.4784C22.0472 41.3135 21.7202 41.1273 21.5103 40.9196C21.3003 40.7059 21.1953 40.4189 21.1953 40.0585C21.1953 39.6616 21.3453 39.341 21.6453 39.0967C21.9452 38.8463 22.3502 38.7211 22.8602 38.7211C23.3701 38.7211 23.8351 38.8402 24.2551 39.0784L24.1561 40.0494C23.9281 39.8906 23.7121 39.7685 23.5081 39.683C23.3101 39.5975 23.1001 39.5547 22.8782 39.5547C22.6862 39.5547 22.5362 39.5944 22.4282 39.6738C22.3262 39.7532 22.2752 39.8662 22.2752 40.0127C22.2752 40.1288 22.3052 40.2234 22.3652 40.2967C22.4312 40.37 22.5212 40.4372 22.6352 40.4982C22.7492 40.5532 22.9382 40.6326 23.2021 40.7364C23.6401 40.9074 23.9551 41.0967 24.1471 41.3044C24.3391 41.5059 24.4351 41.7777 24.4351 42.1197C24.4351 42.5533 24.2821 42.8892 23.9761 43.1273C23.6701 43.3655 23.2351 43.4846 22.6712 43.4846Z%22 fill=%22%233B755F%22%3E%3C/path%3E%3Cpath d=%22M27.1875 38.7394C27.6135 38.7394 27.9795 38.8463 28.2854 39.06C28.5914 39.2738 28.8224 39.5608 28.9784 39.9211C29.1344 40.2814 29.2124 40.6784 29.2124 41.112C29.2124 41.5456 29.1344 41.9426 28.9784 42.3029C28.8224 42.6632 28.5914 42.9502 28.2854 43.164C27.9795 43.3777 27.6135 43.4846 27.1875 43.4846C26.9175 43.4846 26.6865 43.4541 26.4946 43.393C26.3086 43.338 26.1286 43.2464 25.9546 43.1182V45.2118V45.703H25.585C25.1728 45.703 24.8387 45.3689 24.8387 44.9567V38.8127H25.7386L25.8556 39.2341C26.0476 39.0692 26.2486 38.9471 26.4586 38.8677C26.6686 38.7822 26.9115 38.7394 27.1875 38.7394ZM27.0165 42.5502C27.3465 42.5502 27.6045 42.4189 27.7905 42.1563C27.9765 41.8937 28.0694 41.5456 28.0694 41.112C28.0694 40.6784 27.9765 40.3303 27.7905 40.0677C27.6045 39.8051 27.3465 39.6738 27.0165 39.6738C26.6446 39.6738 26.3656 39.802 26.1796 40.0585C25.9936 40.315 25.9006 40.6662 25.9006 41.112C25.9006 41.5578 25.9936 41.909 26.1796 42.1655C26.3656 42.422 26.6446 42.5502 27.0165 42.5502Z%22 fill=%22%233B755F%22%3E%3C/path%3E%3Cpath d=%22M30.7806 43.4846C30.4087 43.4846 30.0967 43.3624 29.8447 43.1182C29.5987 42.8678 29.4757 42.5319 29.4757 42.1105C29.4757 41.7135 29.6167 41.396 29.8987 41.1578C30.1807 40.9135 30.5137 40.7425 30.8976 40.6448C31.2816 40.541 31.6506 40.483 32.0046 40.4708C31.9926 40.2021 31.9236 40.0097 31.7976 39.8936C31.6776 39.7776 31.4766 39.7196 31.1946 39.7196C30.9966 39.7196 30.8016 39.7471 30.6097 39.802C30.4237 39.857 30.2077 39.9456 29.9617 40.0677L29.8627 39.1425C30.4087 38.8738 30.9546 38.7394 31.5006 38.7394C32.0285 38.7394 32.4305 38.886 32.7065 39.1791C32.9885 39.4723 33.1295 39.9394 33.1295 40.5807V41.8174C33.1295 42.0494 33.1385 42.2174 33.1565 42.3212C33.1805 42.4189 33.2165 42.483 33.2645 42.5136C33.3185 42.538 33.4054 42.5502 33.5254 42.5502H33.6694L33.5704 43.4846H33.1655C32.9195 43.4846 32.7125 43.4388 32.5445 43.3472C32.3765 43.2495 32.2475 43.1182 32.1575 42.9533C32.0135 43.1182 31.8156 43.2495 31.5636 43.3472C31.3176 43.4388 31.0566 43.4846 30.7806 43.4846ZM31.2486 42.6143C31.3626 42.6143 31.4916 42.5869 31.6356 42.5319C31.7796 42.4708 31.9056 42.3884 32.0135 42.2846V41.2402C31.6536 41.2586 31.3356 41.338 31.0596 41.4784C30.7836 41.6189 30.6456 41.8143 30.6456 42.0647C30.6456 42.254 30.6936 42.3945 30.7896 42.4861C30.8856 42.5716 31.0386 42.6143 31.2486 42.6143Z%22 fill=%22%233B755F%22%3E%3C/path%3E%3Cpath d=%22M34.0208 38.8127H35.0647L35.0917 39.2982C35.2237 39.1455 35.3917 39.0112 35.5957 38.8951C35.8057 38.7791 36.0247 38.7211 36.2527 38.7211C36.3247 38.7211 36.3906 38.7272 36.4506 38.7394L36.3696 39.857C36.2557 39.8265 36.1267 39.8112 35.9827 39.8112C35.7967 39.8112 35.6257 39.857 35.4697 39.9486C35.3137 40.0341 35.2027 40.141 35.1367 40.2692V43.393H34.0208V38.8127Z%22 fill=%22%233B755F%22%3E%3C/path%3E%3Cpath d=%22M36.8023 36.5226H37.9182V40.6906L39.3131 38.8127H40.573L38.9352 41.0112L40.609 43.393H39.3491L37.9182 41.3593V43.393H36.8023V36.5226Z%22 fill=%22%233B755F%22%3E%3C/path%3E%3C/svg%3E" preserveAspectRatio="none" clip-path="url(#satori_cp-id-0-1)" mask="url(#satori_om-id-0-1)"/>
    <mask id="satori_om-id-0-1-0">
        <rect x="42" y="42" width="0" height="46" fill="#fff"/>
    </mask>
    <mask id="satori_om-id-0-1-1">
        <rect x="42" y="42" width="0" height="46" fill="#fff"/>
    </mask>
    <mask id="satori_om-id-0-1-2">
        <rect x="42" y="42" width="0" height="46" fill="#fff"/>
    </mask>
    <mask id="satori_om-id-0-1-3">
        <rect x="42" y="42" width="0" height="46" fill="#fff"/>
    </mask>
    <mask id="satori_om-id-0-1-4">
        <rect x="42" y="42" width="0" height="46" fill="#fff"/>
    </mask>
    <mask id="satori_om-id-0-1-5">
        <rect x="42" y="42" width="0" height="46" fill="#fff"/>
    </mask>
    <mask id="satori_om-id-0-1-6">
        <rect x="42" y="42" width="0" height="46" fill="#fff"/>
    </mask>
    <mask id="satori_om-id-0-1-7">
        <rect x="42" y="42" width="0" height="46" fill="#fff"/>
    </mask>
    <mask id="satori_om-id-0-1-8">
        <rect x="42" y="42" width="0" height="46" fill="#fff"/>
    </mask>
    <mask id="satori_om-id-0-1-9">
        <rect x="42" y="42" width="0" height="46" fill="#fff"/>
    </mask>
    <mask id="satori_om-id-0-1-10">
        <rect x="42" y="42" width="0" height="46" fill="#fff"/>
    </mask>
    <mask id="satori_om-id-0-2">
        <rect x="91" y="48" width="141" height="24" fill="#fff"/>
    </mask>
    <path fill="#3B755F" d="M97.1 71.0L97.1 71.0Q95.7 71.0 94.6 70.6Q93.6 70.2 92.9 69.5Q92.3 68.9 92.1 68.0L92.1 68.0L94.9 67.6Q95.1 67.9 95.3 68.2Q95.6 68.5 96.1 68.7Q96.5 68.9 97.2 68.9L97.2 68.9Q98.2 68.9 98.8 68.4Q99.5 67.9 99.5 66.8L99.5 66.8L99.5 64.8L99.3 64.8Q99.1 65.2 98.7 65.6Q98.3 66.1 97.7 66.3Q97.1 66.6 96.2 66.6L96.2 66.6Q95.0 66.6 94.0 66.0Q93.0 65.4 92.4 64.2Q91.8 63.1 91.8 61.2L91.8 61.2Q91.8 59.4 92.4 58.1Q93.0 56.9 94.0 56.3Q95.0 55.7 96.2 55.7L96.2 55.7Q97.1 55.7 97.8 56.0Q98.4 56.3 98.8 56.7Q99.1 57.2 99.3 57.6L99.3 57.6L99.5 57.6L99.5 55.8L102.5 55.8L102.5 66.8Q102.5 68.2 101.8 69.2Q101.1 70.1 99.9 70.6Q98.7 71.0 97.1 71.0ZM97.2 64.3L97.2 64.3Q97.9 64.3 98.4 63.9Q98.9 63.6 99.2 62.9Q99.5 62.2 99.5 61.2L99.5 61.2Q99.5 60.3 99.2 59.6Q98.9 58.9 98.4 58.5Q97.9 58.1 97.2 58.1L97.2 58.1Q96.4 58.1 95.9 58.5Q95.4 58.9 95.2 59.6Q94.9 60.3 94.9 61.2L94.9 61.2Q94.9 62.2 95.2 62.9Q95.4 63.5 95.9 63.9Q96.4 64.3 97.2 64.3ZM109.5 66.9L109.5 66.9Q107.8 66.9 106.6 66.2Q105.4 65.6 104.8 64.3Q104.1 63.0 104.1 61.3L104.1 61.3Q104.1 59.6 104.8 58.4Q105.4 57.1 106.6 56.4Q107.8 55.7 109.4 55.7L109.4 55.7Q110.5 55.7 111.4 56.0Q112.3 56.4 113.0 57.0Q113.7 57.7 114.1 58.8Q114.5 59.8 114.5 61.2L114.5 61.2L114.5 62.0L105.3 62.0L105.3 60.2L111.7 60.2Q111.7 59.5 111.4 59.0Q111.1 58.5 110.6 58.2Q110.1 57.9 109.5 57.9L109.5 57.9Q108.8 57.9 108.2 58.2Q107.7 58.6 107.4 59.1Q107.1 59.6 107.1 60.3L107.1 60.3L107.1 62.0Q107.1 62.9 107.4 63.4Q107.7 64.0 108.3 64.4Q108.8 64.7 109.6 64.7L109.6 64.7Q110.1 64.7 110.5 64.5Q110.9 64.4 111.2 64.1Q111.5 63.8 111.7 63.4L111.7 63.4L114.5 63.6Q114.3 64.6 113.6 65.4Q112.9 66.1 111.9 66.5Q110.9 66.9 109.5 66.9ZM115.4 55.8L122.0 55.8L122.0 58.1L115.4 58.1L115.4 55.8ZM116.9 63.8L116.9 53.2L119.9 53.2L119.9 63.4Q119.9 63.8 120.1 64.0Q120.2 64.2 120.4 64.3Q120.7 64.4 121.0 64.4L121.0 64.4Q121.2 64.4 121.4 64.4Q121.6 64.4 121.7 64.3L121.7 64.3L122.2 66.6Q122.0 66.7 121.5 66.8Q121.1 66.8 120.5 66.9L120.5 66.9Q119.5 66.9 118.6 66.6Q117.8 66.2 117.4 65.5Q116.9 64.8 116.9 63.8L116.9 63.8ZM128.4 71.0L128.4 71.0Q127.0 71.0 125.9 70.6Q124.9 70.2 124.3 69.5Q123.6 68.9 123.4 68.0L123.4 68.0L126.2 67.6Q126.4 67.9 126.7 68.2Q126.9 68.5 127.4 68.7Q127.8 68.9 128.5 68.9L128.5 68.9Q129.5 68.9 130.1 68.4Q130.8 67.9 130.8 66.8L130.8 66.8L130.8 64.8L130.7 64.8Q130.5 65.2 130.1 65.6Q129.7 66.1 129.0 66.3Q128.4 66.6 127.5 66.6L127.5 66.6Q126.3 66.6 125.3 66.0Q124.3 65.4 123.7 64.2Q123.1 63.1 123.1 61.2L123.1 61.2Q123.1 59.4 123.7 58.1Q124.3 56.9 125.3 56.3Q126.3 55.7 127.5 55.7L127.5 55.7Q128.4 55.7 129.1 56.0Q129.7 56.3 130.1 56.7Q130.4 57.2 130.7 57.6L130.7 57.6L130.8 57.6L130.8 55.8L133.8 55.8L133.8 66.8Q133.8 68.2 133.1 69.2Q132.4 70.1 131.2 70.6Q130.0 71.0 128.4 71.0ZM128.5 64.3L128.5 64.3Q129.2 64.3 129.7 63.9Q130.2 63.6 130.5 62.9Q130.8 62.2 130.8 61.2L130.8 61.2Q130.8 60.3 130.5 59.6Q130.3 58.9 129.7 58.5Q129.2 58.1 128.5 58.1L128.5 58.1Q127.8 58.1 127.2 58.5Q126.7 58.9 126.5 59.6Q126.2 60.3 126.2 61.2L126.2 61.2Q126.2 62.2 126.5 62.9Q126.7 63.5 127.2 63.9Q127.8 64.3 128.5 64.3ZM138.9 66.7L135.9 66.7L135.9 55.8L138.8 55.8L138.8 57.7L138.9 57.7Q139.2 56.7 139.9 56.2Q140.6 55.7 141.5 55.7L141.5 55.7Q141.8 55.7 142.0 55.7Q142.3 55.7 142.5 55.8L142.5 55.8L142.5 58.4Q142.3 58.4 141.9 58.3Q141.5 58.3 141.2 58.3L141.2 58.3Q140.5 58.3 140.0 58.6Q139.5 58.9 139.2 59.4Q138.9 59.9 138.9 60.5L138.9 60.5L138.9 66.7ZM148.2 66.9L148.2 66.9Q146.5 66.9 145.3 66.2Q144.1 65.6 143.4 64.3Q142.8 63.0 142.8 61.3L142.8 61.3Q142.8 59.6 143.4 58.4Q144.1 57.1 145.3 56.4Q146.5 55.7 148.1 55.7L148.1 55.7Q149.1 55.7 150.1 56.0Q151.0 56.4 151.7 57.0Q152.4 57.7 152.8 58.8Q153.2 59.8 153.2 61.2L153.2 61.2L153.2 62.0L144.0 62.0L144.0 60.2L150.3 60.2Q150.3 59.5 150.1 59.0Q149.8 58.5 149.3 58.2Q148.8 57.9 148.1 57.9L148.1 57.9Q147.4 57.9 146.9 58.2Q146.4 58.6 146.1 59.1Q145.8 59.6 145.8 60.3L145.8 60.3L145.8 62.0Q145.8 62.9 146.1 63.4Q146.4 64.0 146.9 64.4Q147.5 64.7 148.2 64.7L148.2 64.7Q148.7 64.7 149.2 64.5Q149.6 64.4 149.9 64.1Q150.2 63.8 150.3 63.4L150.3 63.4L153.1 63.6Q152.9 64.6 152.3 65.4Q151.6 66.1 150.6 66.5Q149.5 66.9 148.2 66.9ZM159.8 66.9L159.8 66.9Q158.1 66.9 156.9 66.2Q155.7 65.6 155.1 64.3Q154.4 63.0 154.4 61.3L154.4 61.3Q154.4 59.6 155.1 58.4Q155.7 57.1 156.9 56.4Q158.1 55.7 159.7 55.7L159.7 55.7Q160.8 55.7 161.7 56.0Q162.6 56.4 163.3 57.0Q164.0 57.7 164.4 58.8Q164.8 59.8 164.8 61.2L164.8 61.2L164.8 62.0L155.6 62.0L155.6 60.2L162.0 60.2Q162.0 59.5 161.7 59.0Q161.4 58.5 160.9 58.2Q160.4 57.9 159.7 57.9L159.7 57.9Q159.1 57.9 158.5 58.2Q158.0 58.6 157.7 59.1Q157.4 59.6 157.4 60.3L157.4 60.3L157.4 62.0Q157.4 62.9 157.7 63.4Q158.0 64.0 158.5 64.4Q159.1 64.7 159.9 64.7L159.9 64.7Q160.4 64.7 160.8 64.5Q161.2 64.4 161.5 64.1Q161.8 63.8 162.0 63.4L162.0 63.4L164.8 63.6Q164.5 64.6 163.9 65.4Q163.2 66.1 162.2 66.5Q161.2 66.9 159.8 66.9ZM169.5 60.4L169.5 60.4L169.5 66.7L166.5 66.7L166.5 55.8L169.4 55.8L169.4 57.7L169.5 57.7Q169.8 56.8 170.7 56.2Q171.6 55.7 172.8 55.7L172.8 55.7Q173.9 55.7 174.7 56.2Q175.6 56.7 176.1 57.6Q176.5 58.5 176.5 59.8L176.5 59.8L176.5 66.7L173.5 66.7L173.5 60.3Q173.5 59.3 173.0 58.7Q172.5 58.2 171.6 58.2L171.6 58.2Q171.0 58.2 170.5 58.4Q170.0 58.7 169.8 59.2Q169.5 59.7 169.5 60.4ZM187.7 58.9L187.7 58.9L184.9 59.1Q184.8 58.7 184.6 58.4Q184.4 58.2 184.0 58.0Q183.6 57.8 183.1 57.8L183.1 57.8Q182.4 57.8 181.9 58.1Q181.4 58.4 181.4 58.9L181.4 58.9Q181.4 59.3 181.7 59.6Q182.0 59.8 182.8 60.0L182.8 60.0L184.8 60.4Q186.4 60.7 187.1 61.4Q187.9 62.2 187.9 63.3L187.9 63.3Q187.9 64.4 187.3 65.2Q186.7 66.0 185.6 66.5Q184.5 66.9 183.1 66.9L183.1 66.9Q180.9 66.9 179.6 66.0Q178.3 65.1 178.1 63.6L178.1 63.6L181.1 63.4Q181.2 64.1 181.7 64.4Q182.3 64.8 183.1 64.8L183.1 64.8Q183.9 64.8 184.3 64.4Q184.8 64.1 184.8 63.6L184.8 63.6Q184.8 63.2 184.5 63.0Q184.2 62.7 183.4 62.6L183.4 62.6L181.6 62.2Q180.0 61.9 179.2 61.1Q178.4 60.3 178.4 59.1L178.4 59.1Q178.4 58.0 179.0 57.3Q179.5 56.5 180.6 56.1Q181.6 55.7 183.0 55.7L183.0 55.7Q185.1 55.7 186.3 56.5Q187.5 57.4 187.7 58.9ZM192.5 70.8L189.5 70.8L189.5 55.8L192.5 55.8L192.5 57.6L192.6 57.6Q192.8 57.2 193.2 56.7Q193.6 56.3 194.2 56.0Q194.8 55.7 195.7 55.7L195.7 55.7Q196.9 55.7 197.9 56.3Q198.9 56.9 199.5 58.2Q200.1 59.4 200.1 61.3L200.1 61.3Q200.1 63.1 199.6 64.4Q199.0 65.6 198.0 66.3Q197.0 66.9 195.7 66.9L195.7 66.9Q194.8 66.9 194.2 66.6Q193.6 66.3 193.2 65.9Q192.8 65.4 192.6 65.0L192.6 65.0L192.5 65.0L192.5 70.8ZM192.5 61.3L192.5 61.3Q192.5 62.2 192.7 63.0Q193.0 63.7 193.5 64.1Q194.0 64.5 194.8 64.5L194.8 64.5Q195.5 64.5 196.0 64.1Q196.5 63.7 196.8 62.9Q197.1 62.2 197.1 61.3L197.1 61.3Q197.1 60.3 196.8 59.6Q196.5 58.9 196.0 58.5Q195.5 58.1 194.8 58.1L194.8 58.1Q194.0 58.1 193.5 58.5Q193.0 58.9 192.7 59.6Q192.5 60.3 192.5 61.3ZM204.9 66.9L204.9 66.9Q203.9 66.9 203.1 66.6Q202.3 66.2 201.8 65.5Q201.3 64.8 201.3 63.7L201.3 63.7Q201.3 62.8 201.7 62.1Q202.0 61.5 202.6 61.2Q203.1 60.8 203.9 60.6Q204.6 60.4 205.4 60.3L205.4 60.3Q206.4 60.2 207.0 60.1Q207.5 60.0 207.8 59.9Q208.1 59.7 208.1 59.3L208.1 59.3L208.1 59.3Q208.1 58.6 207.6 58.2Q207.2 57.9 206.4 57.9L206.4 57.9Q205.6 57.9 205.1 58.2Q204.7 58.6 204.5 59.1L204.5 59.1L201.7 58.9Q201.9 57.9 202.5 57.2Q203.2 56.5 204.2 56.1Q205.2 55.7 206.5 55.7L206.5 55.7Q207.4 55.7 208.2 55.9Q209.0 56.1 209.7 56.5Q210.3 57.0 210.7 57.7Q211.1 58.4 211.1 59.4L211.1 59.4L211.1 66.7L208.2 66.7L208.2 65.2L208.1 65.2Q207.9 65.7 207.4 66.1Q207.0 66.5 206.4 66.7Q205.8 66.9 204.9 66.9ZM205.8 64.8L205.8 64.8Q206.5 64.8 207.0 64.6Q207.5 64.3 207.8 63.9Q208.1 63.4 208.1 62.8L208.1 62.8L208.1 61.7Q207.9 61.8 207.7 61.8Q207.5 61.9 207.1 62.0Q206.8 62.0 206.5 62.1Q206.2 62.1 206.0 62.2L206.0 62.2Q205.4 62.2 205.1 62.4Q204.7 62.6 204.4 62.9Q204.2 63.1 204.2 63.6L204.2 63.6Q204.2 64.2 204.7 64.5Q205.1 64.8 205.8 64.8ZM216.1 66.7L213.1 66.7L213.1 55.8L216.1 55.8L216.1 57.7L216.2 57.7Q216.5 56.7 217.2 56.2Q217.9 55.7 218.8 55.7L218.8 55.7Q219.0 55.7 219.3 55.7Q219.5 55.7 219.7 55.8L219.7 55.8L219.7 58.4Q219.5 58.4 219.1 58.3Q218.8 58.3 218.5 58.3L218.5 58.3Q217.8 58.3 217.3 58.6Q216.7 58.9 216.4 59.4Q216.1 59.9 216.1 60.5L216.1 60.5L216.1 66.7ZM225.7 61.3L223.7 63.6L223.7 60.0L224.2 60.0L227.7 55.8L231.1 55.8L226.4 61.3L225.7 61.3ZM224.0 66.7L221.0 66.7L221.0 52.2L224.0 52.2L224.0 66.7ZM231.3 66.7L227.8 66.7L224.6 62.0L226.6 59.8L231.3 66.7Z "/>
    <mask id="satori_om-id-1">
        <rect x="125" y="124" width="550" height="152" fill="#fff"/>
    </mask>
    <rect x="125" y="124" width="550" height="152" fill="#3B755F"/>
    <path fill="white" d="M190.8 185.5L184.7 185.5L184.7 156.4L196.2 156.4Q199.5 156.4 201.8 157.6Q204.1 158.9 205.4 161.1Q206.6 163.3 206.6 166.2L206.6 166.2Q206.6 169.1 205.3 171.4Q204.1 173.6 201.7 174.8Q199.4 176.0 196.0 176.0L196.0 176.0L188.7 176.0L188.7 171.1L195.0 171.1Q196.8 171.1 197.9 170.5Q199.1 169.9 199.7 168.8Q200.2 167.7 200.2 166.2L200.2 166.2Q200.2 164.8 199.7 163.7Q199.1 162.6 197.9 162.0Q196.8 161.4 195.0 161.4L195.0 161.4L190.8 161.4L190.8 185.5ZM219.6 185.9L219.6 185.9Q216.3 185.9 213.9 184.5Q211.5 183.1 210.2 180.5Q208.9 178.0 208.9 174.7L208.9 174.7Q208.9 171.3 210.2 168.7Q211.5 166.2 213.9 164.8Q216.3 163.4 219.6 163.4L219.6 163.4Q223.0 163.4 225.4 164.8Q227.8 166.2 229.1 168.7Q230.4 171.3 230.4 174.7L230.4 174.7Q230.4 178.0 229.1 180.5Q227.8 183.1 225.4 184.5Q223.0 185.9 219.6 185.9ZM219.7 181.2L219.7 181.2Q221.2 181.2 222.2 180.4Q223.2 179.5 223.7 178.0Q224.2 176.5 224.2 174.6L224.2 174.6Q224.2 172.7 223.7 171.2Q223.2 169.7 222.2 168.9Q221.2 168.0 219.7 168.0L219.7 168.0Q218.2 168.0 217.1 168.9Q216.1 169.7 215.6 171.2Q215.1 172.7 215.1 174.6L215.1 174.6Q215.1 176.5 215.6 178.0Q216.1 179.5 217.1 180.4Q218.2 181.2 219.7 181.2ZM252.2 169.9L252.2 169.9L246.6 170.2Q246.5 169.5 246.0 168.9Q245.5 168.4 244.8 168.0Q244.0 167.7 243.0 167.7L243.0 167.7Q241.6 167.7 240.6 168.3Q239.6 168.8 239.6 169.8L239.6 169.8Q239.6 170.6 240.3 171.1Q240.9 171.7 242.4 172.0L242.4 172.0L246.4 172.8Q249.5 173.5 251.1 174.9Q252.7 176.4 252.7 178.7L252.7 178.7Q252.7 180.9 251.4 182.5Q250.1 184.1 248.0 185.0Q245.8 185.9 242.9 185.9L242.9 185.9Q238.6 185.9 236.1 184.1Q233.5 182.3 233.0 179.2L233.0 179.2L239.0 178.8Q239.3 180.2 240.3 180.9Q241.3 181.5 243.0 181.5L243.0 181.5Q244.6 181.5 245.5 180.9Q246.5 180.3 246.5 179.3L246.5 179.3Q246.5 178.5 245.8 178.0Q245.1 177.4 243.7 177.2L243.7 177.2L239.9 176.4Q236.7 175.8 235.2 174.2Q233.6 172.6 233.6 170.2L233.6 170.2Q233.6 168.1 234.8 166.5Q235.9 165.0 238.0 164.2Q240.1 163.4 242.9 163.4L242.9 163.4Q247.0 163.4 249.4 165.1Q251.8 166.9 252.2 169.9ZM262.2 185.5L256.2 185.5L256.2 163.7L262.2 163.7L262.2 185.5ZM259.2 160.8L259.2 160.8Q257.9 160.8 256.9 159.9Q255.9 159.0 255.9 157.8L255.9 157.8Q255.9 156.5 256.9 155.6Q257.9 154.7 259.2 154.7L259.2 154.7Q260.6 154.7 261.5 155.6Q262.5 156.5 262.5 157.8L262.5 157.8Q262.5 159.0 261.5 159.9Q260.6 160.8 259.2 160.8ZM265.2 163.7L278.3 163.7L278.3 168.2L265.2 168.2L265.2 163.7ZM268.2 179.6L268.2 158.4L274.2 158.4L274.2 178.8Q274.2 179.6 274.5 180.1Q274.7 180.5 275.2 180.7Q275.7 180.9 276.3 180.9L276.3 180.9Q276.7 180.9 277.1 180.8Q277.5 180.7 277.8 180.7L277.8 180.7L278.7 185.2Q278.3 185.3 277.4 185.5Q276.6 185.7 275.4 185.8L275.4 185.8Q273.3 185.9 271.6 185.2Q270.0 184.5 269.1 183.1Q268.2 181.7 268.2 179.6L268.2 179.6ZM288.0 185.5L281.9 185.5L281.9 163.7L288.0 163.7L288.0 185.5ZM285.0 160.8L285.0 160.8Q283.6 160.8 282.7 159.9Q281.7 159.0 281.7 157.8L281.7 157.8Q281.7 156.5 282.7 155.6Q283.6 154.7 285.0 154.7L285.0 154.7Q286.3 154.7 287.3 155.6Q288.3 156.5 288.3 157.8L288.3 157.8Q288.3 159.0 287.3 159.9Q286.3 160.8 285.0 160.8ZM306.4 163.7L312.8 163.7L305.2 185.5L298.4 185.5L290.8 163.7L297.2 163.7L301.7 179.3L301.9 179.3L306.4 163.7ZM324.8 185.9L324.8 185.9Q321.5 185.9 319.1 184.5Q316.6 183.2 315.3 180.6Q314.0 178.1 314.0 174.7L314.0 174.7Q314.0 171.3 315.3 168.8Q316.6 166.2 319.0 164.8Q321.4 163.4 324.6 163.4L324.6 163.4Q326.8 163.4 328.6 164.1Q330.5 164.7 331.9 166.1Q333.3 167.5 334.1 169.6Q334.9 171.7 334.9 174.5L334.9 174.5L334.9 176.1L316.4 176.1L316.4 172.4L329.2 172.4Q329.2 171.1 328.6 170.0Q328.0 169.0 327.0 168.5Q326.0 167.9 324.7 167.9L324.7 167.9Q323.3 167.9 322.3 168.5Q321.2 169.2 320.6 170.2Q320.0 171.3 320.0 172.6L320.0 172.6L320.0 176.1Q320.0 177.7 320.6 178.9Q321.2 180.1 322.3 180.7Q323.4 181.4 324.9 181.4L324.9 181.4Q325.9 181.4 326.8 181.1Q327.6 180.8 328.2 180.2Q328.8 179.7 329.1 178.9L329.1 178.9L334.7 179.2Q334.3 181.2 333.0 182.7Q331.7 184.2 329.6 185.1Q327.5 185.9 324.8 185.9Z M358.4 185.9L358.4 185.9Q355.0 185.9 352.6 184.5Q350.2 183.0 348.9 180.5Q347.7 178.0 347.7 174.7L347.7 174.7Q347.7 171.3 349.0 168.8Q350.3 166.2 352.7 164.8Q355.1 163.4 358.4 163.4L358.4 163.4Q361.2 163.4 363.4 164.4Q365.5 165.4 366.8 167.3Q368.0 169.2 368.1 171.7L368.1 171.7L362.4 171.7Q362.2 170.1 361.2 169.1Q360.1 168.1 358.5 168.1L358.5 168.1Q357.1 168.1 356.0 168.8Q355.0 169.6 354.4 171.1Q353.8 172.5 353.8 174.6L353.8 174.6Q353.8 176.7 354.4 178.1Q355.0 179.6 356.0 180.3Q357.1 181.1 358.5 181.1L358.5 181.1Q359.5 181.1 360.3 180.7Q361.2 180.3 361.7 179.4Q362.3 178.6 362.4 177.5L362.4 177.5L368.1 177.5Q368.0 180.0 366.8 181.9Q365.6 183.8 363.4 184.8Q361.3 185.9 358.4 185.9ZM371.7 156.4L377.8 156.4L377.8 185.5L371.7 185.5L371.7 156.4ZM388.3 185.5L382.3 185.5L382.3 163.7L388.3 163.7L388.3 185.5ZM385.3 160.8L385.3 160.8Q384.0 160.8 383.0 159.9Q382.0 159.0 382.0 157.8L382.0 157.8Q382.0 156.5 383.0 155.6Q384.0 154.7 385.3 154.7L385.3 154.7Q386.7 154.7 387.6 155.6Q388.6 156.5 388.6 157.8L388.6 157.8Q388.6 159.0 387.6 159.9Q386.7 160.8 385.3 160.8ZM398.9 185.5L392.8 185.5L392.8 163.7L398.6 163.7L398.6 167.5L398.9 167.5Q399.5 165.6 401.1 164.5Q402.7 163.4 404.9 163.4L404.9 163.4Q407.2 163.4 408.8 164.5Q410.3 165.6 410.9 167.5L410.9 167.5L411.1 167.5Q411.8 165.6 413.5 164.5Q415.3 163.4 417.7 163.4L417.7 163.4Q420.7 163.4 422.6 165.3Q424.5 167.2 424.5 170.8L424.5 170.8L424.5 185.5L418.5 185.5L418.5 172.0Q418.5 170.2 417.5 169.3Q416.6 168.4 415.1 168.4L415.1 168.4Q413.5 168.4 412.5 169.4Q411.6 170.4 411.6 172.2L411.6 172.2L411.6 185.5L405.8 185.5L405.8 171.9Q405.8 170.3 404.8 169.3Q403.9 168.4 402.4 168.4L402.4 168.4Q401.4 168.4 400.6 168.9Q399.8 169.4 399.3 170.3Q398.9 171.2 398.9 172.4L398.9 172.4L398.9 185.5ZM435.2 185.9L435.2 185.9Q433.1 185.9 431.5 185.2Q429.9 184.4 428.9 183.0Q428.0 181.5 428.0 179.4L428.0 179.4Q428.0 177.6 428.6 176.3Q429.3 175.1 430.5 174.3Q431.6 173.6 433.1 173.2Q434.5 172.8 436.2 172.7L436.2 172.7Q438.1 172.5 439.2 172.3Q440.4 172.1 440.9 171.8Q441.4 171.4 441.4 170.7L441.4 170.7L441.4 170.6Q441.4 169.3 440.6 168.5Q439.8 167.8 438.2 167.8L438.2 167.8Q436.6 167.8 435.6 168.5Q434.6 169.2 434.3 170.3L434.3 170.3L428.7 169.8Q429.2 167.9 430.4 166.4Q431.7 164.9 433.6 164.2Q435.6 163.4 438.2 163.4L438.2 163.4Q440.1 163.4 441.7 163.8Q443.4 164.2 444.7 165.1Q446.0 166.0 446.7 167.4Q447.5 168.8 447.5 170.8L447.5 170.8L447.5 185.5L441.8 185.5L441.8 182.4L441.6 182.4Q441.1 183.5 440.2 184.2Q439.3 185.0 438.1 185.5Q436.8 185.9 435.2 185.9ZM436.9 181.7L436.9 181.7Q438.3 181.7 439.3 181.2Q440.3 180.6 440.9 179.7Q441.5 178.8 441.5 177.7L441.5 177.7L441.5 175.4Q441.2 175.5 440.7 175.7Q440.2 175.8 439.6 176.0Q439.0 176.1 438.4 176.2Q437.8 176.3 437.3 176.3L437.3 176.3Q436.2 176.5 435.4 176.8Q434.6 177.2 434.2 177.8Q433.7 178.3 433.7 179.2L433.7 179.2Q433.7 180.4 434.6 181.1Q435.5 181.7 436.9 181.7ZM450.3 163.7L463.5 163.7L463.5 168.2L450.3 168.2L450.3 163.7ZM453.3 179.6L453.3 158.4L459.4 158.4L459.4 178.8Q459.4 179.6 459.6 180.1Q459.9 180.5 460.4 180.7Q460.8 180.9 461.4 180.9L461.4 180.9Q461.8 180.9 462.3 180.8Q462.7 180.7 462.9 180.7L462.9 180.7L463.9 185.2Q463.4 185.3 462.6 185.5Q461.8 185.7 460.6 185.8L460.6 185.8Q458.4 185.9 456.8 185.2Q455.1 184.5 454.2 183.1Q453.3 181.7 453.3 179.6L453.3 179.6ZM476.8 185.9L476.8 185.9Q473.4 185.9 471.0 184.5Q468.6 183.2 467.3 180.6Q466.0 178.1 466.0 174.7L466.0 174.7Q466.0 171.3 467.3 168.8Q468.6 166.2 471.0 164.8Q473.4 163.4 476.6 163.4L476.6 163.4Q478.7 163.4 480.6 164.1Q482.5 164.7 483.9 166.1Q485.3 167.5 486.0 169.6Q486.8 171.7 486.8 174.5L486.8 174.5L486.8 176.1L468.4 176.1L468.4 172.4L481.1 172.4Q481.1 171.1 480.6 170.0Q480.0 169.0 479.0 168.5Q478.0 167.9 476.7 167.9L476.7 167.9Q475.3 167.9 474.2 168.5Q473.2 169.2 472.6 170.2Q472.0 171.3 472.0 172.6L472.0 172.6L472.0 176.1Q472.0 177.7 472.6 178.9Q473.2 180.1 474.3 180.7Q475.4 181.4 476.9 181.4L476.9 181.4Q477.9 181.4 478.8 181.1Q479.6 180.8 480.2 180.2Q480.8 179.7 481.1 178.9L481.1 178.9L486.7 179.2Q486.3 181.2 485.0 182.7Q483.6 184.2 481.6 185.1Q479.5 185.9 476.8 185.9Z M505.9 185.9L505.9 185.9Q503.8 185.9 502.1 185.2Q500.5 184.4 499.6 183.0Q498.6 181.5 498.6 179.4L498.6 179.4Q498.6 177.6 499.3 176.3Q500.0 175.1 501.1 174.3Q502.3 173.6 503.7 173.2Q505.2 172.8 506.8 172.7L506.8 172.7Q508.7 172.5 509.9 172.3Q511.0 172.1 511.6 171.8Q512.1 171.4 512.1 170.7L512.1 170.7L512.1 170.6Q512.1 169.3 511.3 168.5Q510.4 167.8 508.9 167.8L508.9 167.8Q507.2 167.8 506.3 168.5Q505.3 169.2 505.0 170.3L505.0 170.3L499.4 169.8Q499.8 167.9 501.1 166.4Q502.3 164.9 504.3 164.2Q506.3 163.4 508.9 163.4L508.9 163.4Q510.7 163.4 512.4 163.8Q514.0 164.2 515.3 165.1Q516.6 166.0 517.4 167.4Q518.1 168.8 518.1 170.8L518.1 170.8L518.1 185.5L512.4 185.5L512.4 182.4L512.2 182.4Q511.7 183.5 510.8 184.2Q510.0 185.0 508.7 185.5Q507.5 185.9 505.9 185.9ZM507.6 181.7L507.6 181.7Q508.9 181.7 510.0 181.2Q511.0 180.6 511.6 179.7Q512.1 178.8 512.1 177.7L512.1 177.7L512.1 175.4Q511.9 175.5 511.4 175.7Q510.9 175.8 510.3 176.0Q509.7 176.1 509.0 176.2Q508.4 176.3 507.9 176.3L507.9 176.3Q506.9 176.5 506.1 176.8Q505.3 177.2 504.8 177.8Q504.4 178.3 504.4 179.2L504.4 179.2Q504.4 180.4 505.3 181.1Q506.2 181.7 507.6 181.7ZM532.4 185.9L532.4 185.9Q529.0 185.9 526.6 184.5Q524.2 183.0 522.9 180.5Q521.6 178.0 521.6 174.7L521.6 174.7Q521.6 171.3 522.9 168.8Q524.2 166.2 526.6 164.8Q529.0 163.4 532.4 163.4L532.4 163.4Q535.2 163.4 537.4 164.4Q539.5 165.4 540.8 167.3Q542.0 169.2 542.1 171.7L542.1 171.7L536.4 171.7Q536.2 170.1 535.2 169.1Q534.1 168.1 532.5 168.1L532.5 168.1Q531.1 168.1 530.0 168.8Q529.0 169.6 528.4 171.1Q527.8 172.5 527.8 174.6L527.8 174.6Q527.8 176.7 528.4 178.1Q528.9 179.6 530.0 180.3Q531.1 181.1 532.5 181.1L532.5 181.1Q533.5 181.1 534.3 180.7Q535.2 180.3 535.7 179.4Q536.3 178.6 536.4 177.5L536.4 177.5L542.1 177.5Q542.0 180.0 540.8 181.9Q539.6 183.8 537.4 184.8Q535.3 185.9 532.4 185.9ZM544.2 163.7L557.3 163.7L557.3 168.2L544.2 168.2L544.2 163.7ZM547.2 179.6L547.2 158.4L553.2 158.4L553.2 178.8Q553.2 179.6 553.5 180.1Q553.7 180.5 554.2 180.7Q554.6 180.9 555.2 180.9L555.2 180.9Q555.7 180.9 556.1 180.8Q556.5 180.7 556.8 180.7L556.8 180.7L557.7 185.2Q557.3 185.3 556.4 185.5Q555.6 185.7 554.4 185.8L554.4 185.8Q552.2 185.9 550.6 185.2Q549.0 184.5 548.0 183.1Q547.1 181.7 547.2 179.6L547.2 179.6ZM567.0 185.5L560.9 185.5L560.9 163.7L567.0 163.7L567.0 185.5ZM564.0 160.8L564.0 160.8Q562.6 160.8 561.7 159.9Q560.7 159.0 560.7 157.8L560.7 157.8Q560.7 156.5 561.7 155.6Q562.6 154.7 564.0 154.7L564.0 154.7Q565.3 154.7 566.3 155.6Q567.2 156.5 567.2 157.8L567.2 157.8Q567.2 159.0 566.3 159.9Q565.3 160.8 564.0 160.8ZM581.3 185.9L581.3 185.9Q578.0 185.9 575.6 184.5Q573.2 183.1 571.9 180.5Q570.6 178.0 570.6 174.7L570.6 174.7Q570.6 171.3 571.9 168.7Q573.2 166.2 575.6 164.8Q578.0 163.4 581.3 163.4L581.3 163.4Q584.7 163.4 587.1 164.8Q589.5 166.2 590.8 168.7Q592.1 171.3 592.1 174.7L592.1 174.7Q592.1 178.0 590.8 180.5Q589.5 183.1 587.1 184.5Q584.7 185.9 581.3 185.9ZM581.4 181.2L581.4 181.2Q582.9 181.2 583.9 180.4Q584.9 179.5 585.4 178.0Q585.9 176.5 585.9 174.6L585.9 174.6Q585.9 172.7 585.4 171.2Q584.9 169.7 583.9 168.9Q582.9 168.0 581.4 168.0L581.4 168.0Q579.9 168.0 578.8 168.9Q577.8 169.7 577.3 171.2Q576.8 172.7 576.8 174.6L576.8 174.6Q576.8 176.5 577.3 178.0Q577.8 179.5 578.8 180.4Q579.9 181.2 581.4 181.2ZM601.8 172.9L601.8 172.9L601.8 185.5L595.7 185.5L595.7 163.7L601.5 163.7L601.5 167.5L601.7 167.5Q602.5 165.6 604.2 164.5Q605.9 163.4 608.3 163.4L608.3 163.4Q610.6 163.4 612.3 164.4Q613.9 165.4 614.9 167.2Q615.8 169.0 615.8 171.6L615.8 171.6L615.8 185.5L609.8 185.5L609.8 172.7Q609.8 170.7 608.7 169.5Q607.7 168.4 605.9 168.4L605.9 168.4Q604.7 168.4 603.7 168.9Q602.8 169.5 602.3 170.5Q601.8 171.5 601.8 172.9Z M304.3 242.0L298.2 242.0L298.2 220.1L304.0 220.1L304.0 224.0L304.2 224.0Q304.9 222.1 306.5 221.0Q308.1 219.8 310.3 219.8L310.3 219.8Q312.5 219.8 314.1 221.0Q315.7 222.1 316.2 224.0L316.2 224.0L316.5 224.0Q317.1 222.1 318.9 221.0Q320.6 219.8 323.0 219.8L323.0 219.8Q326.1 219.8 328.0 221.8Q329.9 223.7 329.9 227.3L329.9 227.3L329.9 242.0L323.9 242.0L323.9 228.5Q323.9 226.7 322.9 225.7Q321.9 224.8 320.5 224.8L320.5 224.8Q318.8 224.8 317.9 225.9Q317.0 226.9 317.0 228.6L317.0 228.6L317.0 242.0L311.1 242.0L311.1 228.3Q311.1 226.7 310.2 225.8Q309.3 224.8 307.8 224.8L307.8 224.8Q306.8 224.8 306.0 225.3Q305.2 225.8 304.7 226.7Q304.3 227.6 304.3 228.9L304.3 228.9L304.3 242.0ZM340.6 242.4L340.6 242.4Q338.5 242.4 336.9 241.6Q335.2 240.9 334.3 239.5Q333.3 238.0 333.3 235.9L333.3 235.9Q333.3 234.0 334.0 232.8Q334.7 231.6 335.8 230.8Q337.0 230.1 338.4 229.7Q339.9 229.3 341.5 229.1L341.5 229.1Q343.4 228.9 344.6 228.8Q345.8 228.6 346.3 228.2Q346.8 227.9 346.8 227.2L346.8 227.2L346.8 227.1Q346.8 225.7 346.0 225.0Q345.1 224.3 343.6 224.3L343.6 224.3Q341.9 224.3 341.0 225.0Q340.0 225.7 339.7 226.8L339.7 226.8L334.1 226.3Q334.5 224.3 335.8 222.9Q337.0 221.4 339.0 220.6Q341.0 219.8 343.6 219.8L343.6 219.8Q345.4 219.8 347.1 220.3Q348.8 220.7 350.1 221.6Q351.4 222.5 352.1 223.9Q352.9 225.3 352.9 227.2L352.9 227.2L352.9 242.0L347.1 242.0L347.1 238.9L347.0 238.9Q346.4 239.9 345.6 240.7Q344.7 241.5 343.4 241.9Q342.2 242.4 340.6 242.4ZM342.3 238.2L342.3 238.2Q343.6 238.2 344.7 237.7Q345.7 237.1 346.3 236.2Q346.9 235.3 346.9 234.2L346.9 234.2L346.9 231.8Q346.6 232.0 346.1 232.2Q345.6 232.3 345.0 232.4Q344.4 232.6 343.8 232.7Q343.2 232.7 342.7 232.8L342.7 232.8Q341.6 233.0 340.8 233.3Q340.0 233.7 339.6 234.2Q339.1 234.8 339.1 235.7L339.1 235.7Q339.1 236.9 340.0 237.5Q340.9 238.2 342.3 238.2ZM365.3 242.3L365.3 242.3Q362.8 242.3 360.8 241.0Q358.8 239.7 357.6 237.2Q356.4 234.7 356.4 231.1L356.4 231.1Q356.4 227.3 357.6 224.8Q358.9 222.3 360.9 221.1Q362.9 219.8 365.3 219.8L365.3 219.8Q367.1 219.8 368.3 220.5Q369.6 221.1 370.3 222.0Q371.1 222.9 371.5 223.8L371.5 223.8L371.7 223.8L371.7 212.9L377.7 212.9L377.7 242.0L371.7 242.0L371.7 238.5L371.5 238.5Q371.1 239.4 370.3 240.3Q369.5 241.1 368.3 241.7Q367.0 242.3 365.3 242.3ZM367.2 237.5L367.2 237.5Q368.7 237.5 369.7 236.7Q370.7 235.9 371.2 234.4Q371.8 233.0 371.8 231.0L371.8 231.0Q371.8 229.1 371.3 227.7Q370.7 226.2 369.7 225.4Q368.7 224.7 367.2 224.7L367.2 224.7Q365.7 224.7 364.7 225.5Q363.7 226.3 363.1 227.7Q362.6 229.2 362.6 231.0L362.6 231.0Q362.6 232.9 363.2 234.4Q363.7 235.9 364.7 236.7Q365.7 237.5 367.2 237.5ZM392.3 242.4L392.3 242.4Q388.9 242.4 386.5 241.0Q384.1 239.6 382.8 237.1Q381.5 234.6 381.5 231.1L381.5 231.1Q381.5 227.8 382.8 225.2Q384.1 222.7 386.5 221.3Q388.8 219.8 392.0 219.8L392.0 219.8Q394.2 219.8 396.1 220.5Q397.9 221.2 399.3 222.6Q400.7 224.0 401.5 226.1Q402.3 228.1 402.3 230.9L402.3 230.9L402.3 232.6L383.9 232.6L383.9 228.8L396.6 228.8Q396.6 227.5 396.0 226.5Q395.5 225.5 394.5 224.9Q393.5 224.4 392.1 224.4L392.1 224.4Q390.8 224.4 389.7 225.0Q388.6 225.6 388.1 226.7Q387.5 227.7 387.4 229.0L387.4 229.0L387.4 232.6Q387.4 234.2 388.0 235.4Q388.6 236.6 389.8 237.2Q390.9 237.9 392.4 237.9L392.4 237.9Q393.4 237.9 394.2 237.6Q395.1 237.3 395.7 236.7Q396.3 236.2 396.6 235.3L396.6 235.3L402.2 235.7Q401.7 237.7 400.4 239.2Q399.1 240.7 397.0 241.5Q395.0 242.4 392.3 242.4Z M424.8 242.4L424.8 242.4Q421.5 242.4 419.0 241.0Q416.6 239.6 415.3 237.1Q414.0 234.6 414.0 231.1L414.0 231.1Q414.0 227.8 415.3 225.2Q416.6 222.7 419.0 221.3Q421.4 219.8 424.6 219.8L424.6 219.8Q426.7 219.8 428.6 220.5Q430.5 221.2 431.9 222.6Q433.3 224.0 434.1 226.1Q434.8 228.1 434.8 230.9L434.8 230.9L434.8 232.6L416.4 232.6L416.4 228.8L429.1 228.8Q429.1 227.5 428.6 226.5Q428.0 225.5 427.0 224.9Q426.0 224.4 424.7 224.4L424.7 224.4Q423.3 224.4 422.2 225.0Q421.2 225.6 420.6 226.7Q420.0 227.7 420.0 229.0L420.0 229.0L420.0 232.6Q420.0 234.2 420.6 235.4Q421.2 236.6 422.3 237.2Q423.4 237.9 424.9 237.9L424.9 237.9Q425.9 237.9 426.8 237.6Q427.6 237.3 428.2 236.7Q428.8 236.2 429.1 235.3L429.1 235.3L434.7 235.7Q434.3 237.7 433.0 239.2Q431.7 240.7 429.6 241.5Q427.5 242.4 424.8 242.4ZM444.7 242.4L444.7 242.4Q442.6 242.4 441.0 241.6Q439.3 240.9 438.4 239.5Q437.4 238.0 437.4 235.9L437.4 235.9Q437.4 234.0 438.1 232.8Q438.8 231.6 439.9 230.8Q441.1 230.1 442.6 229.7Q444.0 229.3 445.6 229.1L445.6 229.1Q447.5 228.9 448.7 228.8Q449.9 228.6 450.4 228.2Q450.9 227.9 450.9 227.2L450.9 227.2L450.9 227.1Q450.9 225.7 450.1 225.0Q449.2 224.3 447.7 224.3L447.7 224.3Q446.1 224.3 445.1 225.0Q444.1 225.7 443.8 226.8L443.8 226.8L438.2 226.3Q438.6 224.3 439.9 222.9Q441.1 221.4 443.1 220.6Q445.1 219.8 447.7 219.8L447.7 219.8Q449.5 219.8 451.2 220.3Q452.9 220.7 454.2 221.6Q455.5 222.5 456.2 223.9Q457.0 225.3 457.0 227.2L457.0 227.2L457.0 242.0L451.2 242.0L451.2 238.9L451.1 238.9Q450.5 239.9 449.7 240.7Q448.8 241.5 447.5 241.9Q446.3 242.4 444.7 242.4ZM446.4 238.2L446.4 238.2Q447.8 238.2 448.8 237.7Q449.8 237.1 450.4 236.2Q451.0 235.3 451.0 234.2L451.0 234.2L451.0 231.8Q450.7 232.0 450.2 232.2Q449.7 232.3 449.1 232.4Q448.5 232.6 447.9 232.7Q447.3 232.7 446.8 232.8L446.8 232.8Q445.7 233.0 444.9 233.3Q444.1 233.7 443.7 234.2Q443.2 234.8 443.2 235.7L443.2 235.7Q443.2 236.9 444.1 237.5Q445.0 238.2 446.4 238.2ZM479.5 226.4L479.5 226.4L474.0 226.7Q473.8 226.0 473.4 225.4Q472.9 224.8 472.1 224.5Q471.4 224.1 470.3 224.1L470.3 224.1Q468.9 224.1 467.9 224.7Q467.0 225.3 467.0 226.3L467.0 226.3Q467.0 227.1 467.6 227.6Q468.2 228.2 469.8 228.5L469.8 228.5L473.7 229.3Q476.9 229.9 478.4 231.4Q480.0 232.8 480.0 235.2L480.0 235.2Q480.0 237.3 478.8 239.0Q477.5 240.6 475.3 241.5Q473.1 242.4 470.3 242.4L470.3 242.4Q466.0 242.4 463.4 240.6Q460.8 238.8 460.4 235.6L460.4 235.6L466.3 235.3Q466.6 236.6 467.7 237.3Q468.7 238.0 470.3 238.0L470.3 238.0Q471.9 238.0 472.9 237.4Q473.8 236.8 473.9 235.8L473.9 235.8Q473.8 235.0 473.2 234.4Q472.5 233.9 471.1 233.6L471.1 233.6L467.3 232.9Q464.1 232.2 462.5 230.7Q461.0 229.1 461.0 226.6L461.0 226.6Q461.0 224.5 462.1 223.0Q463.3 221.5 465.3 220.7Q467.4 219.8 470.2 219.8L470.2 219.8Q474.4 219.8 476.7 221.6Q479.1 223.3 479.5 226.4ZM487.2 250.1L487.2 250.1Q486.1 250.1 485.1 250.0Q484.1 249.8 483.4 249.5L483.4 249.5L484.8 245.0Q485.9 245.3 486.7 245.3Q487.6 245.4 488.2 244.9Q488.9 244.5 489.2 243.5L489.2 243.5L489.6 242.6L481.8 220.1L488.1 220.1L492.7 236.2L492.9 236.2L497.4 220.1L503.9 220.1L495.4 244.3Q494.8 246.1 493.7 247.4Q492.7 248.7 491.1 249.4Q489.5 250.1 487.2 250.1Z "/>
</svg>