<?xml version="1.0" standalone="no"?>
<!DOCTYPE svg PUBLIC "-//W3C//DTD SVG 20010904//EN"
 "http://www.w3.org/TR/2001/REC-SVG-20010904/DTD/svg10.dtd">
<svg version="1.0"
    xmlns="http://www.w3.org/2000/svg" width="128.000000pt" height="128.000000pt" viewBox="0 0 128.000000 128.000000" preserveAspectRatio="xMidYMid meet">
    <metadata>
Created by potrace 1.14, written by Peter Selinger 2001-2017
    </metadata>
    <g transform="translate(0.000000,128.000000) scale(0.100000,-0.100000)" fill="#000000" stroke="none">
        <path d="M500 1264 c-234 -50 -436 -254 -485 -489 -95 -454 306 -855 760 -760
238 50 440 252 490 490 95 456 -309 857 -765 759z m120 -283 c0 -16 -7 -48
-15 -71 -18 -50 -19 -121 -4 -170 6 -19 14 -92 18 -162 6 -112 9 -130 28 -149
l21 -21 17 26 c23 34 23 181 1 318 -20 123 -20 168 0 196 30 43 95 17 110 -44
9 -37 -2 -178 -26 -329 -12 -70 -19 -134 -16 -141 9 -24 35 -15 57 19 18 28
20 41 13 112 -12 126 -10 136 25 167 37 33 54 35 82 7 18 -18 20 -28 14 -72
-15 -111 -68 -245 -127 -319 -35 -45 -101 -78 -154 -78 -125 0 -272 160 -320
349 -20 82 -13 121 32 160 40 36 55 38 77 13 22 -24 29 -85 19 -163 -9 -75 -1
-118 28 -144 19 -17 22 -17 37 -2 23 22 19 122 -8 222 -43 161 -43 162 -30
207 15 49 63 98 97 98 20 0 24 -5 24 -29z"/>
    </g>
</svg>
